<svg width="25" height="24" viewBox="0 0 25 24" fill="none" xmlns="http://www.w3.org/2000/svg">
<path d="M15.7899 8.85L11.0599 13.59L9.20987 11.73C9.02156 11.5417 8.76617 11.4359 8.49987 11.4359C8.23356 11.4359 7.97817 11.5417 7.78987 11.73C7.60156 11.9183 7.49577 12.1737 7.49577 12.44C7.49577 12.5719 7.52175 12.7024 7.57221 12.8242C7.62267 12.9461 7.69663 13.0568 7.78987 13.15L10.3499 15.71C10.4428 15.8037 10.5534 15.8781 10.6753 15.9289C10.7971 15.9797 10.9279 16.0058 11.0599 16.0058C11.1919 16.0058 11.3226 15.9797 11.4444 15.9289C11.5663 15.8781 11.6769 15.8037 11.7699 15.71L17.2099 10.27C17.3031 10.1768 17.3771 10.0661 17.4275 9.94425C17.478 9.82243 17.504 9.69186 17.504 9.56C17.504 9.42814 17.478 9.29757 17.4275 9.17575C17.3771 9.05393 17.3031 8.94324 17.2099 8.85C17.1166 8.75676 17.0059 8.6828 16.8841 8.63234C16.7623 8.58188 16.6317 8.55591 16.4999 8.55591C16.368 8.55591 16.2374 8.58188 16.1156 8.63234C15.9938 8.6828 15.8831 8.75676 15.7899 8.85ZM12.4999 2C11.1866 2 9.88629 2.25866 8.67303 2.7612C7.45978 3.26375 6.35738 4.00035 5.4288 4.92893C3.55343 6.8043 2.49987 9.34784 2.49987 12C2.49112 14.3091 3.29066 16.5485 4.75987 18.33L2.75987 20.33C2.62111 20.4706 2.52711 20.6492 2.48974 20.8432C2.45236 21.0372 2.47329 21.2379 2.54987 21.42C2.63292 21.5999 2.76757 21.7511 2.93671 21.8544C3.10586 21.9577 3.30187 22.0083 3.49987 22H12.4999C15.152 22 17.6956 20.9464 19.5709 19.0711C21.4463 17.1957 22.4999 14.6522 22.4999 12C22.4999 9.34784 21.4463 6.8043 19.5709 4.92893C17.6956 3.05357 15.152 2 12.4999 2ZM12.4999 20H5.90987L6.83987 19.07C7.02612 18.8826 7.13066 18.6292 7.13066 18.365C7.13066 18.1008 7.02612 17.8474 6.83987 17.66C5.53045 16.352 4.71504 14.6305 4.53256 12.7888C4.35007 10.947 4.81181 9.09901 5.83909 7.55952C6.86638 6.02004 8.39566 4.88436 10.1664 4.34597C11.9371 3.80759 13.8397 3.8998 15.5501 4.60691C17.2604 5.31402 18.6727 6.59227 19.5463 8.22389C20.4199 9.85551 20.7007 11.7395 20.341 13.555C19.9813 15.3705 19.0032 17.005 17.5734 18.1802C16.1436 19.3554 14.3506 19.9985 12.4999 20Z" fill="#7C7C7C"/>
</svg>
