<?xml version="1.0" ?><svg data-name="Layer 1" id="Layer_1" viewBox="0 0 32 32" xmlns="http://www.w3.org/2000/svg"><title/><path d="M16,32a5.17,5.17,0,0,1-1.64-.27,4.83,4.83,0,0,1-2.68-2.37A6,6,0,0,1,11,26.62V23.56a2.21,2.21,0,0,0-.79-1.68A9,9,0,0,1,15,6.06h0A9,9,0,0,1,21.76,21.9,2.17,2.17,0,0,0,21,23.56v3.06a6.1,6.1,0,0,1-.63,2.68A4.91,4.91,0,0,1,16,32ZM16,8a7.32,7.32,0,0,0-.81,0h0A7.11,7.11,0,0,0,9,14.29a7,7,0,0,0,2.47,6.06A4.19,4.19,0,0,1,13,23.56v3.06a4,4,0,0,0,.44,1.82A2.83,2.83,0,0,0,15,29.83a2.89,2.89,0,0,0,3.58-1.42A4.13,4.13,0,0,0,19,26.62V23.56a4.14,4.14,0,0,1,1.48-3.19A7,7,0,0,0,16,8Zm-.92-1h0Z"/><path d="M15.71,23.67a13.7,13.7,0,0,1-4.45-.73,1,1,0,0,1,.65-1.89,12.08,12.08,0,0,0,8.24-.24,1,1,0,1,1,.77,1.84A13.37,13.37,0,0,1,15.71,23.67Z"/><path d="M15.75,28a11,11,0,0,1-4.13-.78,1,1,0,1,1,.76-1.85,9.29,9.29,0,0,0,7.19-.2A1,1,0,0,1,20.43,27,11,11,0,0,1,15.75,28Z"/><path d="M16,4a1,1,0,0,1-1-1V1a1,1,0,0,1,2,0V3A1,1,0,0,1,16,4Z"/><path d="M10,5.61a1,1,0,0,1-.87-.5l-1-1.73a1,1,0,1,1,1.74-1l1,1.73a1,1,0,0,1-.37,1.36A1,1,0,0,1,10,5.61Z"/><path d="M5.61,10a1,1,0,0,1-.5-.13l-1.73-1a1,1,0,0,1,1-1.74l1.73,1A1,1,0,0,1,5.61,10Z"/><path d="M4,16H2a1,1,0,0,1,0-2H4a1,1,0,0,1,0,2Z"/><path d="M3.88,23a1,1,0,0,1-.5-1.87l1.73-1a1,1,0,0,1,1,1.74l-1.73,1A1,1,0,0,1,3.88,23Z"/><path d="M22,5.61a1,1,0,0,1-.5-.14,1,1,0,0,1-.37-1.36l1-1.73a1,1,0,0,1,1.74,1l-1,1.73A1,1,0,0,1,22,5.61Z"/><path d="M26.39,10a1,1,0,0,1-.5-1.87l1.73-1a1,1,0,0,1,1,1.74l-1.73,1A1,1,0,0,1,26.39,10Z"/><path d="M30,16H28a1,1,0,0,1,0-2h2a1,1,0,0,1,0,2Z"/><path d="M28.12,23a1,1,0,0,1-.5-.13l-1.73-1a1,1,0,0,1,1-1.74l1.73,1a1,1,0,0,1-.5,1.87Z"/></svg>