<?xml version="1.0" ?><svg enable-background="new 0 0 400 400" id="Layer_1" version="1.1" viewBox="0 0 400 400" xml:space="preserve" xmlns="http://www.w3.org/2000/svg" xmlns:xlink="http://www.w3.org/1999/xlink"><g><path d="M74.244,260.106c-2.577-5.943-4.309-12.215-5.149-18.643l-0.021-0.151   c-0.043-0.282-0.074-0.563-0.107-0.846l-0.04-0.34c-0.538-4.82-0.566-9.757-0.083-14.672l0.217-2.294l-0.14-0.236   c0.258-9.279,1.356-46.667,1.37-47.145l0.808-40.229c0.217-2.434,1.348-4.647,3.196-6.248c1.886-1.633,4.297-2.437,6.789-2.251   c2.49,0.18,4.761,1.317,6.396,3.204c1.633,1.885,2.434,4.292,2.255,6.778l-0.03,0.415l1.914,41.901   c0.2,4.412,3.35,8.167,7.662,9.134c3.611,0.809,7.324-0.461,9.692-3.313l0.206-0.248L179.384,82.53   c1.998-2.915,5.629-4.241,9.03-3.305c0.881,0.243,1.716,0.632,2.483,1.159c1.824,1.25,3.052,3.137,3.458,5.312   c0.405,2.175-0.06,4.377-1.311,6.201l-16.483,24.04c5.321,0.035,10.603,1.399,15.289,3.962c1.031,0.563,2.021,1.181,2.973,1.841   l19.905-29.031c2.583-3.766,7.748-4.73,11.514-2.146c1.824,1.25,3.052,3.137,3.458,5.312c0.406,2.175-0.06,4.377-1.311,6.201   l-22.563,32.908c0.604,1.345,1.125,2.737,1.549,4.176c2.329,7.916,1.57,16.296-2.13,23.645l-0.514,1.279l5.764-3.47l22.644-33.024   c2.583-3.766,7.748-4.73,11.513-2.147c3.766,2.582,4.729,7.747,2.147,11.513l-2.104,3.068l17.358-10.45   c-0.753-6.128-4.004-11.921-9.484-15.678c-3.865-2.65-8.277-3.903-12.643-3.888l0.01-0.015c3.366-4.908,4.619-10.834,3.527-16.685   c-1.091-5.851-4.396-10.926-9.304-14.292c-8.385-5.748-19.334-4.95-26.803,1.231c-1.514-4.623-4.462-8.612-8.542-11.409   c-2.052-1.407-4.3-2.453-6.683-3.109c-9.159-2.523-18.92,1.048-24.294,8.885l-62.774,91.555l-1.337-28.578   c0.322-6.058-1.681-11.902-5.666-16.501c-4.081-4.711-9.753-7.552-15.966-8c-6.227-0.453-12.248,1.547-16.965,5.631   c-4.711,4.08-7.556,9.753-8.008,15.974l-0.827,40.739c-0.055,1.88-1.333,45.403-1.421,49.032   c-0.541,5.761-0.494,11.552,0.146,17.274l0.04,0.341c0.049,0.423,0.1,0.844,0.163,1.267c1.012,7.698,3.09,15.209,6.172,22.318   c8.818,20.423,25.021,36.276,45.623,44.639c1.833,0.744,3.714,1.42,5.622,2.039c-4.309-6.276-7.8-13.012-10.429-20.077   C89.836,284.769,80.092,273.651,74.244,260.106z" fill="#333333"/><path d="M344.84,216.123c1.435-5.776,0.535-11.766-2.535-16.864c-2.359-3.919-5.784-6.953-9.866-8.797   c5.095-3.07,8.689-7.939,10.124-13.712c1.435-5.776,0.535-11.766-2.535-16.864c-3.069-5.099-7.941-8.697-13.717-10.132   c-3.729-0.926-7.544-0.879-11.152,0.095c0.532-4.823-0.522-9.662-3.067-13.888c-1.283-2.132-2.895-4.017-4.791-5.602   c-7.284-6.095-17.65-6.896-25.791-1.996l-95.149,57.283l10.685-26.58c2.808-5.379,3.412-11.529,1.694-17.369   c-1.759-5.979-5.741-10.917-11.208-13.903c-5.474-2.993-11.785-3.674-17.772-1.915c-5.979,1.757-10.921,5.739-13.914,11.211   l-17.656,36.724c-0.831,1.688-20.061,40.777-21.638,44.026c-2.881,5.015-5.241,10.303-7.033,15.773l-0.104,0.325   c-0.132,0.408-0.261,0.813-0.379,1.227c-2.272,7.423-3.499,15.12-3.643,22.864c-0.45,22.241,7.714,43.387,22.989,59.543   c16.404,17.347,38.588,26.418,61.096,26.417c14.409-0.001,28.954-3.721,42.188-11.368l6.003-3.613   c0.064-0.039,0.126-0.078,0.188-0.118l93.898-56.53c5.099-3.07,8.697-7.941,10.132-13.718c1.435-5.776,0.535-11.766-2.535-16.864v0   c-2.416-4.013-5.904-6.991-9.879-8.789l5.236-3.152C339.808,226.77,343.406,221.898,344.84,216.123z M331.253,212.747   c-0.533,2.147-1.871,3.958-3.766,5.099l-65.196,39.251c-2.113,1.258-3.605,3.264-4.204,5.648c-0.598,2.385-0.229,4.858,1.038,6.962   c1.268,2.106,3.28,3.59,5.668,4.177c2.386,0.586,4.859,0.207,6.93-1.054l44.267-26.651c3.914-2.356,9.012-1.088,11.367,2.823v0   c1.141,1.895,1.476,4.121,0.942,6.268s-1.871,3.958-3.766,5.099l-99.926,60.164c-28.261,16.296-63.638,11.129-86.054-12.577   c-12.734-13.468-19.54-31.098-19.164-49.652c0.121-6.476,1.147-12.901,3.05-19.099l0.046-0.155c0.077-0.272,0.164-0.538,0.25-0.806   l0.105-0.326c1.51-4.61,3.533-9.113,6.011-13.383l1.191-2.069l-0.036-0.273c4.145-8.455,20.563-41.827,20.773-42.255l17.425-36.267   c1.208-2.125,3.155-3.669,5.501-4.358c2.394-0.703,4.917-0.432,7.111,0.769c2.191,1.196,3.786,3.174,4.49,5.568   c0.704,2.393,0.434,4.916-0.761,7.103l-0.198,0.362l-15.646,38.923c-1.648,4.099-0.339,8.824,3.18,11.486   c2.949,2.235,6.855,2.622,10.194,1.01l0.291-0.14l106.363-64.035c3.026-1.823,6.879-1.526,9.588,0.74   c0.701,0.586,1.299,1.287,1.778,2.084c1.141,1.895,1.476,4.121,0.942,6.267c-0.533,2.147-1.871,3.958-3.766,5.099l-65.287,39.306   c-2.108,1.26-3.597,3.265-4.192,5.647c-0.596,2.382-0.226,4.853,1.041,6.956c1.267,2.104,3.277,3.586,5.662,4.174   c2.383,0.587,4.853,0.21,6.932-1.051l75.238-45.296c1.895-1.14,4.122-1.476,6.268-0.942c2.147,0.533,3.957,1.871,5.098,3.766   c1.141,1.895,1.476,4.121,0.942,6.267c-0.533,2.147-1.871,3.958-3.766,5.099l-75.644,45.541c-4.218,2.542-5.677,7.922-3.322,12.248   c2.357,4.328,7.669,6.02,12.095,3.851l0.271-0.133l60.333-36.323c1.896-1.141,4.122-1.474,6.268-0.942   c2.146,0.534,3.957,1.871,5.098,3.767C331.452,208.375,331.787,210.601,331.253,212.747z" fill="#333333"/><path d="M122.572,49.672c9.339-5.566,20.862-5.417,30.07,0.394c2.635,1.66,6.114,0.873,7.775-1.76   c1.661-2.633,0.873-6.114-1.76-7.775c-12.816-8.086-28.854-8.293-41.857-0.543c-13.014,7.757-20.461,21.966-19.434,37.081   c0.202,2.976,2.679,5.255,5.618,5.255c0.128,0,0.258-0.004,0.388-0.013c3.106-0.211,5.453-2.899,5.242-6.006   C107.876,65.449,113.225,55.244,122.572,49.672z" fill="#333333"/><path d="M84.155,81.142c0.128,0,0.258-0.004,0.388-0.013c3.106-0.211,5.453-2.9,5.242-6.006   c-1.185-17.451,7.413-33.856,22.44-42.813c15.013-8.949,33.534-8.707,48.336,0.631c2.636,1.662,6.115,0.872,7.775-1.76   c1.661-2.633,0.873-6.114-1.76-7.775c-18.409-11.613-41.447-11.913-60.124-0.78c-18.693,11.142-29.39,31.55-27.915,53.26   C78.739,78.863,81.216,81.142,84.155,81.142z" fill="#333333"/><path d="M293.805,350.328c-9.34,5.566-20.863,5.415-30.07-0.394c-2.634-1.661-6.114-0.872-7.775,1.76   c-1.661,2.634-0.873,6.114,1.76,7.775c6.56,4.138,13.964,6.213,21.374,6.213c7.066,0,14.138-1.887,20.484-5.67   c13.014-7.758,20.461-21.966,19.434-37.081c-0.211-3.106-2.899-5.464-6.006-5.241c-3.106,0.211-5.453,2.899-5.242,6.006   C308.501,334.551,303.153,344.756,293.805,350.328z" fill="#333333"/><path d="M331.835,318.871c-3.106,0.211-5.453,2.9-5.242,6.006c1.185,17.451-7.413,33.856-22.44,42.813   c-15.013,8.948-33.534,8.708-48.336-0.631c-2.635-1.661-6.114-0.871-7.775,1.76c-1.661,2.633-0.873,6.114,1.76,7.775   c9.424,5.945,20.058,8.925,30.702,8.925c10.149,0,20.307-2.711,29.422-8.145c18.693-11.142,29.39-31.55,27.915-53.26   C337.629,321.007,334.94,318.666,331.835,318.871z" fill="#333333"/></g></svg>