<?xml version="1.0" ?><svg height="60px" version="1.1" viewBox="0 0 60 60" width="60px" xmlns="http://www.w3.org/2000/svg" xmlns:xlink="http://www.w3.org/1999/xlink"><title/><desc/><defs/><g fill="none" fill-rule="evenodd" id="People" stroke="none" stroke-width="1"><g fill="#000000" id="Icon-42"><path d="M59.7104,27.7578 L54.2184,5.7578 C53.3454,2.2628 50.9044,0.0048 48.0004,0.0048 L33.0004,0.0048 C30.2344,0.0048 28.3374,1.0888 26.5034,2.1368 C24.8224,3.0978 23.2344,4.0048 21.0004,4.0048 L19.0004,4.0048 C18.4474,4.0048 18.0004,4.4518 18.0004,5.0048 C18.0004,5.5578 18.4474,6.0048 19.0004,6.0048 L21.0004,6.0048 C23.7654,6.0048 25.6624,4.9208 27.4964,3.8728 C29.1774,2.9118 30.7654,2.0048 33.0004,2.0048 L48.0004,2.0048 C50.3764,2.0048 51.7894,4.2868 52.2774,6.2418 L57.7744,28.2608 C58.1274,29.5708 58.0794,30.5318 57.6304,31.1178 C57.0724,31.8468 55.8924,31.9998 55.0004,31.9998 L41.0004,31.9998 C38.1964,31.9998 36.0004,34.1958 36.0004,36.9998 L36.0004,50.9998 C36.0004,55.4478 33.4484,57.9998 29.0004,57.9998 C27.3744,57.9998 26.0004,56.6258 26.0004,54.9998 L26.0004,42.9998 C26.0004,37.1698 21.6824,32.5328 16.0004,32.0428 L16.0004,0.9998 C16.0004,0.4468 15.5524,-0.0002 15.0004,-0.0002 L1.0004,-0.0002 C0.4474,-0.0002 0.0004,0.4468 0.0004,0.9998 L0.0004,38.9998 C0.0004,39.5528 0.4474,39.9998 1.0004,39.9998 L15.0004,39.9998 C15.5524,39.9998 16.0004,39.5528 16.0004,38.9998 L16.0004,36.9998 C16.0004,36.4468 15.5524,35.9998 15.0004,35.9998 C14.4474,35.9998 14.0004,36.4468 14.0004,36.9998 L14.0004,37.9998 L2.0004,37.9998 L2.0004,1.9998 L14.0004,1.9998 L14.0004,32.9998 C14.0004,33.5528 14.4474,33.9998 15.0004,33.9998 C20.0464,33.9998 24.0004,37.9528 24.0004,42.9998 L24.0004,54.9998 C24.0004,57.7568 26.2434,59.9998 29.0004,59.9998 C34.5514,59.9998 38.0004,56.5518 38.0004,50.9998 L38.0004,36.9998 C38.0004,35.3178 39.3174,33.9998 41.0004,33.9998 L55.0004,33.9998 C56.9254,33.9998 58.3834,33.4238 59.2184,32.3348 C60.0654,31.2288 60.2294,29.6828 59.7104,27.7578 M8.0004,29.9998 C9.1034,29.9998 10.0004,30.8978 10.0004,31.9998 C10.0004,33.1028 9.1034,33.9998 8.0004,33.9998 C6.8974,33.9998 6.0004,33.1028 6.0004,31.9998 C6.0004,30.8978 6.8974,29.9998 8.0004,29.9998" id="thumb-down"/></g></g></svg>