<svg width="25" height="24" viewBox="0 0 25 24" fill="none" xmlns="http://www.w3.org/2000/svg">
<path fill-rule="evenodd" clip-rule="evenodd" d="M20.5 2C20.5 1.44772 20.0523 1 19.5 1H5.5C4.94772 1 4.5 1.44772 4.5 2C4.5 2.55228 4.94772 3 5.5 3H19.5C20.0523 3 20.5 2.55228 20.5 2ZM19.5 5H5.5C4.39543 5 3.5 5.89543 3.5 7V17C3.5 18.1046 4.39543 19 5.5 19H19.5C20.6046 19 21.5 18.1046 21.5 17V7C21.5 5.89543 20.6046 5 19.5 5ZM5.5 17V7H19.5V17H5.5ZM19.5 21C20.0523 21 20.5 21.4477 20.5 22C20.5 22.5523 20.0523 23 19.5 23H5.5C4.94772 23 4.5 22.5523 4.5 22C4.5 21.4477 4.94772 21 5.5 21H19.5Z" fill="#7C7C7C"/>
</svg>
