<?xml version="1.0" ?><!DOCTYPE svg  PUBLIC '-//W3C//DTD SVG 1.1//EN'  'http://www.w3.org/Graphics/SVG/1.1/DTD/svg11.dtd'><svg enable-background="new 0 0 48 48" id="Layer_1" version="1.1" viewBox="0 0 48 48" xml:space="preserve" xmlns="http://www.w3.org/2000/svg" xmlns:xlink="http://www.w3.org/1999/xlink"><g><path fill='green' d="M46,22.5h-3.4c-0.7-9.1-8-16.3-17.1-17.1V2c0-0.8-0.7-1.5-1.5-1.5S22.5,1.2,22.5,2v3.4c-9.1,0.7-16.3,8-17.1,17.1H2   c-0.8,0-1.5,0.7-1.5,1.5s0.7,1.5,1.5,1.5h3.4c0.7,9.1,8,16.3,17.1,17.1V46c0,0.8,0.7,1.5,1.5,1.5s1.5-0.7,1.5-1.5v-3.4   c9.1-0.7,16.3-8,17.1-17.1H46c0.8,0,1.5-0.7,1.5-1.5S46.8,22.5,46,22.5z M25.5,39.6v-3.3c0-0.8-0.7-1.5-1.5-1.5s-1.5,0.7-1.5,1.5   v3.3c-7.4-0.7-13.4-6.6-14.1-14.1h3.3c0.8,0,1.5-0.7,1.5-1.5s-0.7-1.5-1.5-1.5H8.4c0.7-7.4,6.6-13.4,14.1-14.1v3.3   c0,0.8,0.7,1.5,1.5,1.5s1.5-0.7,1.5-1.5V8.4c7.4,0.7,13.4,6.6,14.1,14.1h-3.3c-0.8,0-1.5,0.7-1.5,1.5s0.7,1.5,1.5,1.5h3.3   C38.9,32.9,32.9,38.9,25.5,39.6z"/></g></svg>