<svg width="24" height="24" viewBox="0 0 24 24" fill="none" xmlns="http://www.w3.org/2000/svg">
<path d="M12 1C9.243 1 7 3.243 7 6C7 8.757 9.243 11 12 11C14.757 11 17 8.757 17 6C17 3.243 14.757 1 12 1ZM12 9C10.346 9 9 7.654 9 6C9 4.346 10.346 3 12 3C13.654 3 15 4.346 15 6C15 7.654 13.654 9 12 9ZM21 21V20C21 16.141 17.859 13 14 13H10C6.14 13 3 16.141 3 20V21H5V20C5 17.243 7.243 15 10 15H14C16.757 15 19 17.243 19 20V21H21Z" fill="#7C7C7C"/>
<path d="M20.5 4C19.1215 4 18 5.1215 18 6.5C18 7.8785 19.1215 9 20.5 9C21.8785 9 23 7.8785 23 6.5C23 5.1215 21.8785 4 20.5 4ZM20.5 8C19.673 8 19 7.327 19 6.5C19 5.673 19.673 5 20.5 5C21.327 5 22 5.673 22 6.5C22 7.327 21.327 8 20.5 8Z" fill="#7C7C7C" stroke="#7C7C7C" stroke-width="0.4"/>
<path d="M3.5 4C2.1215 4 1 5.1215 1 6.5C1 7.8785 2.1215 9 3.5 9C4.8785 9 6 7.8785 6 6.5C6 5.1215 4.8785 4 3.5 4ZM3.5 8C2.673 8 2 7.327 2 6.5C2 5.673 2.673 5 3.5 5C4.327 5 5 5.673 5 6.5C5 7.327 4.327 8 3.5 8Z" fill="#7C7C7C" stroke="#7C7C7C" stroke-width="0.4"/>
<path d="M0 17C0 13.141 3.14 10 7 10V12C4.243 12 2 14.243 2 17V18H0V17Z" fill="#7C7C7C"/>
<path d="M24 17C24 13.141 20.86 10 17 10V12C19.757 12 22 14.243 22 17V18H24V17Z" fill="#7C7C7C"/>
</svg>
