<svg width="25" height="24" viewBox="0 0 25 24" fill="none" xmlns="http://www.w3.org/2000/svg">
<path fill-rule="evenodd" clip-rule="evenodd" d="M21.3571 6.28571C21.9883 6.28571 22.5 5.77404 22.5 5.14286C22.5 4.51167 21.9883 4 21.3571 4H3.64286C3.01167 4 2.5 4.51167 2.5 5.14286C2.5 5.77404 3.01167 6.28571 3.64286 6.28571H21.3571ZM21.3571 10.8571C21.9883 10.8571 22.5 11.3688 22.5 12C22.5 12.6312 21.9883 13.1429 21.3571 13.1429H3.64286C3.01167 13.1429 2.5 12.6312 2.5 12C2.5 11.3688 3.01167 10.8571 3.64286 10.8571H21.3571ZM21.3571 17.7143C21.9883 17.7143 22.5 18.226 22.5 18.8571C22.5 19.4883 21.9883 20 21.3571 20H3.64286C3.01167 20 2.5 19.4883 2.5 18.8571C2.5 18.226 3.01167 17.7143 3.64286 17.7143H21.3571Z" fill="#7C7C7C"/>
</svg>
