<svg width="50" height="50" xmlns="http://www.w3.org/2000/svg">

 <g>
  <title>background</title>
  <rect fill="none" id="canvas_background" height="52" width="52" y="-1" x="-1"/>
 </g>
 <g>
  <title>Layer 1</title>
  <path stroke="null" fill="#ffffff" id="svg_1" d="m42.172108,44.973527q-0.963084,0 -2.900196,-0.088619t-2.922084,-0.088619q-0.963084,0 -2.889252,0.088619t-2.889252,0.088619q-0.525319,0 -0.809866,-0.519053t-0.284548,-1.152044q0,-0.784909 0.372101,-1.164704t0.853643,-0.430434t1.116302,-0.177238t0.984972,-0.379795q0.722313,-0.531713 0.722313,-3.544751l-0.021888,-9.899982q0,-0.531713 -0.021888,-0.784909q-0.284548,-0.101279 -1.094414,-0.101279l-14.774583,0q-0.831754,0 -1.116302,0.101279q-0.021888,0.253196 -0.021888,0.784909l-0.021888,9.393589q0,3.59539 0.809866,4.152422q0.350212,0.253196 1.050637,0.329155t1.247631,0.088619t0.984972,0.379795t0.437765,1.152044q0,0.658311 -0.273603,1.215343t-0.798922,0.557032q-1.028749,0 -3.053414,-0.088619t-3.031526,-0.088619q-0.941196,0 -2.801699,0.088619t-2.77981,0.088619q-0.50343,0 -0.777034,-0.531713t-0.273603,-1.139384q0,-0.759589 0.339268,-1.139384t0.787978,-0.443094t1.039693,-0.189897t0.919307,-0.379795q0.722313,-0.582352 0.722313,-3.62071l-0.021888,-1.44322l0,-20.584874q0,-0.075959 0.010944,-0.658311t0,-0.924167t-0.032832,-0.974806t-0.076609,-1.063425t-0.142274,-0.924167t-0.240771,-0.797569t-0.350212,-0.455754q-0.328324,-0.253196 -0.984972,-0.303836t-1.160078,-0.050639t-0.897419,-0.354475t-0.393989,-1.139384q0,-0.658311 0.262659,-1.215343t0.787978,-0.557032q1.00686,0 3.031526,0.088619t3.031526,0.088619q0.919307,0 2.768866,-0.088619t2.768866,-0.088619q0.547207,0 0.82081,0.557032t0.273603,1.215343q0,0.759589 -0.372101,1.101405t-0.842698,0.367135t-1.083469,0.101279t-0.941196,0.329155q-0.766089,0.531713 -0.766089,4.051144l0.021888,8.102287q0,0.531713 0.021888,0.810229q0.284548,0.075959 0.853643,0.075959l15.299901,0q0.547207,0 0.831754,-0.075959q0.021888,-0.278516 0.021888,-0.810229l0.021888,-8.102287q0,-3.519431 -0.766089,-4.051144q-0.393989,-0.278516 -1.280464,-0.316496t-1.444626,-0.329155t-0.558151,-1.253323q0,-0.658311 0.273603,-1.215343t0.82081,-0.557032q0.963084,0 2.889252,0.088619t2.889252,0.088619q0.941196,0 2.823587,-0.088619t2.823587,-0.088619q0.547207,0 0.82081,0.557032t0.273603,1.215343q0,0.759589 -0.383045,1.114065t-0.875531,0.367135t-1.127246,0.075959t-0.963084,0.316496q-0.766089,0.582352 -0.766089,4.076463l0.021888,23.876428q0,3.013038 0.744201,3.544751q0.350212,0.253196 1.00686,0.341815t1.171022,0.113938t0.908363,0.392455t0.393989,1.126724q0,0.658311 -0.262659,1.215343t-0.787978,0.557032z"/>
 </g>
</svg>