<?xml version="1.0" ?><svg id="Layer_1" style="enable-background:new 0 0 128 128;" version="1.1" viewBox="0 0 128 128" xml:space="preserve" xmlns="http://www.w3.org/2000/svg" xmlns:xlink="http://www.w3.org/1999/xlink"><g><path d="M124,36h-20c-1.7,0-3,1.3-3,3s1.3,3,3,3h12.8L85.4,73.4c-1.2,1.2-1.2,3.1,0,4.2c0.6,0.6,1.4,0.9,2.1,0.9s1.5-0.3,2.1-0.9   L121,46.2V59c0,1.7,1.3,3,3,3s3-1.3,3-3V39C127,37.3,125.7,36,124,36z"/><path d="M79,99c0-7.2-5.2-13.3-12-14.7V21.2l9,9c0.6,0.6,1.4,0.9,2.1,0.9s1.5-0.3,2.1-0.9c1.2-1.2,1.2-3.1,0-4.2L66.1,11.9   c-1.2-1.2-3.1-1.2-4.2,0L47.7,26c-1.2,1.2-1.2,3.1,0,4.2c1.2,1.2,3.1,1.2,4.2,0l9-9v63.1c-1.9,0.4-3.7,1.1-5.3,2.2L11.2,42H24   c1.7,0,3-1.3,3-3s-1.3-3-3-3H4c-1.7,0-3,1.3-3,3v20c0,1.7,1.3,3,3,3s3-1.3,3-3V46.2l44.5,44.5C49.9,93.1,49,95.9,49,99   c0,8.3,6.7,15,15,15S79,107.3,79,99z M64,108c-5,0-9-4-9-9s4-9,9-9s9,4,9,9S69,108,64,108z"/></g></svg>