<?xml version="1.0" ?><svg enable-background="new 0 0 48 48" height="48px" id="Layer_1" version="1.1" viewBox="0 0 48 48" width="48px" xml:space="preserve" xmlns="http://www.w3.org/2000/svg" xmlns:xlink="http://www.w3.org/1999/xlink"><g><g><line fill="none" stroke="#403E3E" stroke-linejoin="round" stroke-miterlimit="10" stroke-width="2" x1="24" x2="24" y1="33" y2="47"/><line fill="none" stroke="#403E3E" stroke-linejoin="round" stroke-miterlimit="10" stroke-width="2" x1="9" x2="39" y1="30" y2="30"/></g><g><circle cx="43" cy="11" fill="none" r="4" stroke="#403E3E" stroke-linejoin="round" stroke-miterlimit="10" stroke-width="2"/><path d="    M29,30v-2c0-1.105,0.895-2,2-2h5c0,0,3.034-3.723,4-5c0.779-1.03,1.708-2,3-2h1c1.657,0,3,1.343,3,3v13c0,2.209-1.791,4-4,4h-7    l-3,7" fill="none" stroke="#403E3E" stroke-linecap="round" stroke-linejoin="round" stroke-miterlimit="10" stroke-width="2"/><path d="    M39,30v4h-3.838c-1.291,0-2.438,0.826-2.846,2.051L29,46" fill="none" stroke="#403E3E" stroke-linecap="round" stroke-linejoin="round" stroke-miterlimit="10" stroke-width="2"/><line fill="none" stroke="#403E3E" stroke-linecap="round" stroke-linejoin="round" stroke-miterlimit="10" stroke-width="2" x1="39" x2="42" y1="30" y2="26"/></g><g><circle cx="5" cy="11" fill="none" r="4" stroke="#403E3E" stroke-linejoin="round" stroke-miterlimit="10" stroke-width="2"/><path d="    M19,30v-2c0-1.105-0.895-2-2-2h-5c0,0-3.034-3.723-4-5c-0.779-1.03-1.708-2-3-2H4c-1.657,0-3,1.343-3,3v13c0,2.209,1.791,4,4,4h7    l3,7" fill="none" stroke="#403E3E" stroke-linecap="round" stroke-linejoin="round" stroke-miterlimit="10" stroke-width="2"/><path d="    M9,30v4h3.838c1.291,0,2.438,0.826,2.846,2.051L19,46" fill="none" stroke="#403E3E" stroke-linecap="round" stroke-linejoin="round" stroke-miterlimit="10" stroke-width="2"/><line fill="none" stroke="#403E3E" stroke-linecap="round" stroke-linejoin="round" stroke-miterlimit="10" stroke-width="2" x1="9" x2="6" y1="30" y2="26"/></g><g><path d="    M32,26v-7c0-2.761-2.239-5-5-5h-6c-2.761,0-5,2.239-5,5v3" fill="none" stroke="#403E3E" stroke-linecap="round" stroke-linejoin="round" stroke-miterlimit="10" stroke-width="2"/><circle cx="24" cy="6" fill="none" r="4" stroke="#403E3E" stroke-linejoin="round" stroke-miterlimit="10" stroke-width="2"/><line fill="none" stroke="#403E3E" stroke-linejoin="round" stroke-miterlimit="10" stroke-width="2" x1="24" x2="24" y1="17" y2="19"/></g></g></svg>