<svg width="25" height="24" viewBox="0 0 25 24" fill="none" xmlns="http://www.w3.org/2000/svg">
<path d="M19.5001 14.0001C19.3728 13.967 19.2401 13.9595 19.1098 13.9778C18.9794 13.9961 18.854 14.0399 18.7407 14.1068C18.6273 14.1737 18.5283 14.2623 18.4493 14.3676C18.3702 14.4728 18.3128 14.5926 18.2801 14.7201C17.8977 16.2287 17.0236 17.5667 15.7957 18.5229C14.5679 19.4791 13.0564 19.9989 11.5001 20.0001H5.91014L6.55014 19.3701C6.73639 19.1827 6.84093 18.9293 6.84093 18.6651C6.84093 18.4009 6.73639 18.1475 6.55014 17.9601C5.56763 16.9817 4.89784 15.7335 4.62572 14.3738C4.35361 13.0142 4.49142 11.6044 5.02168 10.3232C5.55195 9.04196 6.45078 7.9471 7.60416 7.17744C8.75755 6.40779 10.1135 5.99802 11.5001 6.00011C11.7654 6.00011 12.0197 5.89475 12.2072 5.70722C12.3948 5.51968 12.5001 5.26533 12.5001 5.00011C12.5001 4.73489 12.3948 4.48054 12.2072 4.293C12.0197 4.10547 11.7654 4.00011 11.5001 4.00011C9.8076 4.00567 8.15094 4.48839 6.72033 5.39285C5.28971 6.29731 4.14313 7.58684 3.41221 9.11343C2.68129 10.64 2.39565 12.3418 2.58808 14.0233C2.78052 15.7049 3.44323 17.2981 4.50014 18.6201L2.79014 20.2901C2.65138 20.4307 2.55739 20.6093 2.52001 20.8033C2.48264 20.9973 2.50356 21.198 2.58014 21.3801C2.65516 21.5627 2.78256 21.7191 2.94628 21.8294C3.11 21.9397 3.30271 21.9991 3.50014 22.0001H11.5001C13.4964 22.0014 15.4364 21.339 17.015 20.117C18.5936 18.8951 19.7211 17.183 20.2201 15.2501C20.2578 15.1207 20.2689 14.9851 20.2528 14.8513C20.2367 14.7176 20.1937 14.5885 20.1265 14.4717C20.0592 14.355 19.9691 14.253 19.8614 14.172C19.7538 14.0909 19.6309 14.0325 19.5001 14.0001ZM22.2101 5.26011L19.2101 2.26011C19.115 2.16907 19.0029 2.09771 18.8801 2.05011C18.6367 1.95009 18.3636 1.95009 18.1201 2.05011C17.9974 2.09771 17.8852 2.16907 17.7901 2.26011L14.7901 5.26011C14.6018 5.44842 14.496 5.70381 14.496 5.97011C14.496 6.23641 14.6018 6.49181 14.7901 6.68011C14.9784 6.86841 15.2338 6.9742 15.5001 6.9742C15.7664 6.9742 16.0218 6.86841 16.2101 6.68011L17.5001 5.41011V11.0001C17.5001 11.2653 17.6055 11.5197 17.793 11.7072C17.9806 11.8948 18.2349 12.0001 18.5001 12.0001C18.7654 12.0001 19.0197 11.8948 19.2072 11.7072C19.3948 11.5197 19.5001 11.2653 19.5001 11.0001V5.41011L20.7901 6.71011C20.8831 6.80384 20.9937 6.87823 21.1156 6.929C21.2374 6.97977 21.3681 7.00591 21.5001 7.00591C21.6322 7.00591 21.7629 6.97977 21.8847 6.929C22.0066 6.87823 22.1172 6.80384 22.2101 6.71011C22.3039 6.61715 22.3783 6.50655 22.429 6.38469C22.4798 6.26283 22.5059 6.13212 22.5059 6.00011C22.5059 5.8681 22.4798 5.73739 22.429 5.61553C22.3783 5.49367 22.3039 5.38307 22.2101 5.29011V5.26011Z" fill="#7C7C7C"/>
</svg>
