<svg width="25" height="24" viewBox="0 0 25 24" fill="none" xmlns="http://www.w3.org/2000/svg">
<path d="M19.5001 14C19.3728 13.9669 19.2401 13.9593 19.1098 13.9776C18.9794 13.996 18.854 14.0398 18.7407 14.1067C18.6273 14.1736 18.5283 14.2622 18.4493 14.3674C18.3702 14.4727 18.3128 14.5925 18.2801 14.72C17.8977 16.2285 17.0236 17.5666 15.7957 18.5228C14.5679 19.479 13.0564 19.9988 11.5001 20H5.91014L6.55014 19.37C6.73639 19.1826 6.84093 18.9292 6.84093 18.665C6.84093 18.4008 6.73639 18.1473 6.55014 17.96C5.67423 17.0876 5.04498 15.9988 4.72639 14.8043C4.4078 13.6098 4.41124 12.3522 4.73634 11.1595C5.06145 9.96674 5.69663 8.88138 6.5773 8.01377C7.45796 7.14616 8.55268 6.52725 9.75014 6.21999C9.87752 6.18716 9.99719 6.12956 10.1023 6.05048C10.2074 5.9714 10.296 5.87239 10.3628 5.7591C10.4297 5.64582 10.4736 5.52047 10.492 5.39022C10.5104 5.25997 10.503 5.12737 10.4701 4.99999C10.4038 4.74273 10.2381 4.52234 10.0093 4.38732C9.89597 4.32046 9.77062 4.27657 9.64037 4.25815C9.51012 4.23974 9.37752 4.24716 9.25014 4.27999C7.79714 4.65883 6.46202 5.3952 5.3664 6.42202C4.27078 7.44884 3.44949 8.73346 2.97733 10.1589C2.50518 11.5843 2.39717 13.1052 2.66314 14.583C2.92912 16.0608 3.56063 17.4486 4.50014 18.62L2.79014 20.29C2.65138 20.4306 2.55739 20.6092 2.52001 20.8032C2.48264 20.9972 2.50356 21.1979 2.58014 21.38C2.65516 21.5626 2.78256 21.7189 2.94628 21.8293C3.11 21.9396 3.30271 21.999 3.50014 22H11.5001C13.4964 22.0013 15.4364 21.3388 17.015 20.1169C18.5936 18.8949 19.7211 17.1829 20.2201 15.25C20.2578 15.1206 20.2689 14.985 20.2528 14.8512C20.2367 14.7175 20.1937 14.5883 20.1265 14.4716C20.0592 14.3548 19.9691 14.2529 19.8614 14.1718C19.7538 14.0908 19.6309 14.0323 19.5001 14ZM21.5001 1.99999C21.2349 1.99999 20.9806 2.10534 20.793 2.29288C20.6055 2.48042 20.5001 2.73477 20.5001 2.99999C19.7444 2.43201 18.843 2.08994 17.9007 2.01346C16.9584 1.93698 16.0137 2.12923 15.1762 2.5679C14.3388 3.00657 13.6428 3.67369 13.1691 4.49188C12.6954 5.31006 12.4634 6.24577 12.5 7.19048C12.5366 8.13518 12.8402 9.05016 13.3757 9.82927C13.9113 10.6084 14.6567 11.2197 15.5256 11.5923C16.3945 11.965 17.3512 12.0836 18.2848 11.9345C19.2183 11.7854 20.0905 11.3747 20.8001 10.75C20.9177 10.671 21.0172 10.568 21.092 10.4476C21.1668 10.3273 21.2152 10.1925 21.2339 10.0521C21.2526 9.91167 21.2413 9.76887 21.2007 9.63316C21.1601 9.49744 21.0912 9.3719 20.9984 9.26484C20.9056 9.15779 20.7911 9.07167 20.6626 9.01219C20.534 8.95271 20.3943 8.92123 20.2526 8.91982C20.111 8.91842 19.9706 8.94713 19.8409 9.00405C19.7112 9.06097 19.595 9.1448 19.5001 9.24999C19.1366 9.5706 18.7007 9.79835 18.2299 9.91372C17.7591 10.0291 17.2674 10.0287 16.7968 9.91249C16.3262 9.7963 15.8907 9.56781 15.5277 9.24657C15.1647 8.92533 14.885 8.52091 14.7124 8.06793C14.5398 7.61495 14.4796 7.1269 14.5369 6.64556C14.5941 6.16422 14.7672 5.70393 15.0412 5.30407C15.3152 4.90422 15.682 4.57672 16.1103 4.3496C16.5385 4.12249 17.0154 4.00253 17.5001 3.99999C17.9212 4.00084 18.3374 4.09032 18.7216 4.26261C19.1058 4.4349 19.4494 4.68614 19.7301 4.99999H18.5001C18.2349 4.99999 17.9806 5.10534 17.793 5.29288C17.6055 5.48042 17.5001 5.73477 17.5001 5.99999C17.5001 6.2652 17.6055 6.51956 17.793 6.70709C17.9806 6.89463 18.2349 6.99999 18.5001 6.99999H21.5001C21.7654 6.99999 22.0197 6.89463 22.2072 6.70709C22.3948 6.51956 22.5001 6.2652 22.5001 5.99999V2.99999C22.5001 2.73477 22.3948 2.48042 22.2072 2.29288C22.0197 2.10534 21.7654 1.99999 21.5001 1.99999Z" fill="#7C7C7C"/>
</svg>
