<?xml version="1.0" ?><!DOCTYPE svg  PUBLIC '-//W3C//DTD SVG 1.1//EN'  'http://www.w3.org/Graphics/SVG/1.1/DTD/svg11.dtd'><svg height="100%" style="fill:#f7f7f7;fill-rule:evenodd;clip-rule:evenodd;stroke-linejoin:round;stroke-miterlimit:1.41421;" version="1.1" viewBox="0 0 49 49" width="100%" xml:space="preserve" xmlns="http://www.w3.org/2000/svg" xmlns:serif="http://www.serif.com/" xmlns:xlink="http://www.w3.org/1999/xlink"><path d="M8.568,28.862c0,0.531 0.21,1.039 0.585,1.414c0.376,0.376 0.884,0.586 1.415,0.586c5.745,0 22.254,0 28,0c0.53,0 1.039,-0.21 1.414,-0.586c0.375,-0.375 0.586,-0.883 0.586,-1.414c0,-0.53 -0.211,-1.039 -0.586,-1.414c-0.375,-0.375 -0.884,-0.586 -1.414,-0.586c-5.746,0 -22.255,0 -28,0c-0.531,0 -1.039,0.211 -1.415,0.586c-0.375,0.375 -0.585,0.884 -0.585,1.414c0,0 0,0 0,0Zm0,-7.998c0,1.104 0.894,1.998 1.998,1.998c5.743,0 22.255,0 28.002,0c0.53,0 1.039,-0.21 1.414,-0.586c0.375,-0.375 0.586,-0.883 0.586,-1.414c0,-0.53 -0.211,-1.039 -0.586,-1.414c-0.375,-0.375 -0.884,-0.586 -1.414,-0.586c-5.746,0 -22.255,0 -28,0c-0.531,0 -1.039,0.211 -1.415,0.586c-0.375,0.375 -0.585,0.884 -0.585,1.414c0,0.001 0,0.002 0,0.002Z" /></svg>