<svg width="25" height="24" viewBox="0 0 25 24" fill="none" xmlns="http://www.w3.org/2000/svg">
<path d="M21.1101 19.1901C21.7368 18.35 22.1669 17.3799 22.3686 16.3515C22.5703 15.323 22.5385 14.2624 22.2755 13.2478C22.0125 12.2333 21.525 11.2908 20.8491 10.4898C20.1732 9.68883 19.326 9.04986 18.3701 8.62005C18.1619 7.42215 17.6834 6.28747 16.9709 5.30222C16.2585 4.31698 15.3308 3.50708 14.2585 2.93408C13.1861 2.36108 11.9972 2.04006 10.7822 1.99539C9.56713 1.95073 8.3579 2.1836 7.24635 2.67631C6.1348 3.16903 5.15018 3.90863 4.36731 4.83891C3.58443 5.76918 3.0239 6.86567 2.72831 8.04505C2.43271 9.22443 2.40982 10.4557 2.66139 11.6452C2.91295 12.8348 3.43235 13.9513 4.18011 14.9101L2.79011 16.2901C2.65136 16.4307 2.55736 16.6093 2.51998 16.8032C2.48261 16.9972 2.50353 17.1979 2.58011 17.3801C2.65513 17.5627 2.78253 17.719 2.94625 17.8293C3.10997 17.9397 3.30269 17.9991 3.50011 18.0001H9.19011C9.75676 19.1947 10.6501 20.2043 11.7669 20.9122C12.8836 21.6201 14.1779 21.9973 15.5001 22.0001H21.5001C21.6975 21.9991 21.8903 21.9397 22.054 21.8293C22.2177 21.719 22.3451 21.5627 22.4201 21.3801C22.4967 21.1979 22.5176 20.9972 22.4802 20.8032C22.4429 20.6093 22.3489 20.4307 22.2101 20.2901L21.1101 19.1901ZM8.50011 15.0001C8.50149 15.3349 8.52823 15.6692 8.58011 16.0001H5.91011L6.26011 15.6601C6.35384 15.5671 6.42824 15.4565 6.479 15.3346C6.52977 15.2128 6.55591 15.0821 6.55591 14.9501C6.55591 14.818 6.52977 14.6873 6.479 14.5655C6.42824 14.4436 6.35384 14.333 6.26011 14.2401C5.69967 13.6858 5.25536 13.0253 4.95317 12.2973C4.65097 11.5693 4.49695 10.7883 4.50011 10.0001C4.50011 8.40875 5.13225 6.88263 6.25747 5.75741C7.38269 4.63219 8.90881 4.00005 10.5001 4.00005C11.7418 3.99259 12.9546 4.37444 13.968 5.09192C14.9815 5.8094 15.7446 6.82643 16.1501 8.00005C15.9301 8.00005 15.7201 8.00005 15.5001 8.00005C13.6436 8.00005 11.8631 8.73755 10.5504 10.0503C9.23761 11.3631 8.50011 13.1435 8.50011 15.0001ZM19.0401 20.0001L19.0901 20.0501H15.5001C14.3435 20.048 13.2233 19.645 12.3304 18.9097C11.4376 18.1743 10.8273 17.1522 10.6035 16.0174C10.3797 14.8826 10.5563 13.7053 11.1032 12.6861C11.6501 11.6669 12.5334 10.8688 13.6027 10.4278C14.672 9.98675 15.8611 9.93011 16.9674 10.2675C18.0738 10.6049 19.029 11.3154 19.6703 12.278C20.3115 13.2406 20.5992 14.3958 20.4843 15.5468C20.3694 16.6977 19.859 17.7732 19.0401 18.5901C18.8517 18.7747 18.7439 19.0263 18.7401 19.2901C18.7407 19.4224 18.7675 19.5532 18.819 19.6751C18.8705 19.797 18.9456 19.9074 19.0401 20.0001Z" fill="#7C7C7C"/>
</svg>
