<svg width="24" height="24" viewBox="0 0 24 24" fill="none" xmlns="http://www.w3.org/2000/svg">
<g clip-path="url(#clip0)">
<path fill-rule="evenodd" clip-rule="evenodd" d="M8.48223 20.1354L8.48208 20.135L8.48154 20.1336C8.43613 20.0139 8.38953 19.8911 8.37294 19.8462L8.35625 19.8008H10.2001C11.3218 19.8008 12.0001 19.0103 12.0001 18.0008C12.0001 14.4346 11.2532 12.0008 9.60007 12.0008C9.60007 12.0008 5.41393 12.0009 5.3994 12.0006C5.00455 11.9935 4.50331 12.049 3.99791 12.2299C3.77705 12.3089 3.57386 12.4072 3.39176 12.525C3.17569 12.2086 2.81211 12.0008 2.40001 12.0008H1.20001C0.537261 12.0008 0 12.5381 0 13.2008V18.6009C0 19.2636 0.537261 19.8009 1.20001 19.8009H2.40001C2.51905 19.8009 2.63403 19.7835 2.74259 19.7513C3.16075 20.3601 4.21843 21.5687 5.06825 22.5398L5.06835 22.5399C5.5291 23.0664 5.92874 23.5231 6.13221 23.7765L6.31235 24.0008H6.60467C6.96893 24.0009 7.28543 23.9732 7.64903 23.8673C8.45518 23.6326 9.00007 23.084 9.00007 22.2008C9.00007 21.8887 8.94481 21.556 8.843 21.1867C8.77564 20.9424 8.69239 20.6957 8.57831 20.3895C8.56204 20.3458 8.52288 20.2426 8.4826 20.1364L8.48233 20.1357L8.48223 20.1354ZM4.40213 13.3597C3.87341 13.5489 3.60228 13.8568 3.60002 14.394V18.6009L3.60001 18.605C3.60052 18.7474 3.62723 18.8738 3.68503 19.0088C3.78987 19.2536 4.74113 20.3389 5.64276 21.3675L5.64279 21.3676L5.64282 21.3676C6.10817 21.8985 6.56029 22.4143 6.876 22.7917C7.02686 22.7804 7.16905 22.7572 7.3135 22.7152C7.65733 22.6151 7.80003 22.4714 7.80003 22.2008C7.80003 22.0109 7.76159 21.7794 7.68611 21.5056C7.62972 21.3011 7.55667 21.0846 7.45378 20.8084C7.43927 20.7695 7.40319 20.6744 7.36472 20.573L7.36401 20.5711L7.364 20.5711L7.36384 20.5706L7.36371 20.5703C7.31657 20.4461 7.2661 20.313 7.2474 20.2625C7.16938 20.0515 7.11798 19.8962 7.08282 19.755C6.93334 19.155 7.0833 18.6008 7.80003 18.6008H10.2C10.6148 18.6008 10.8 18.3849 10.8 18.0008C10.8 15.1263 10.2091 13.2008 9.60004 13.2008L8.72034 13.2007L5.37937 13.2004C5.11524 13.1957 4.74639 13.2365 4.40213 13.3597ZM1.2 18.6008V13.2008H2.40001V18.6008H1.2Z" fill="#4269E2"/>
<path d="M8.48208 20.135L8.29504 20.2059L8.29524 20.2064L8.48208 20.135ZM8.48223 20.1354L8.66916 20.0643L8.66907 20.0641L8.48223 20.1354ZM8.48154 20.1336L8.66857 20.0628L8.66854 20.0627L8.48154 20.1336ZM8.37294 19.8462L8.1852 19.9152L8.18536 19.9156L8.37294 19.8462ZM8.35625 19.8008V19.6008H8.06972L8.16851 19.8698L8.35625 19.8008ZM9.60007 12.0008V11.8008H9.60006L9.60007 12.0008ZM5.3994 12.0006L5.40364 11.8006L5.40299 11.8006L5.3994 12.0006ZM3.99791 12.2299L3.93054 12.0415V12.0415L3.99791 12.2299ZM3.39176 12.525L3.22658 12.6378L3.33659 12.7989L3.5004 12.6929L3.39176 12.525ZM2.74259 19.7513L2.90745 19.638L2.82507 19.5181L2.68559 19.5596L2.74259 19.7513ZM5.06825 22.5398L5.21921 22.4086L5.21876 22.4081L5.06825 22.5398ZM5.06835 22.5399L4.91739 22.6711L4.91785 22.6716L5.06835 22.5399ZM6.13221 23.7765L6.28816 23.6513L6.13221 23.7765ZM6.31235 24.0008L6.1564 24.126L6.21645 24.2008H6.31235V24.0008ZM6.60467 24.0008L6.6047 23.8008H6.60467V24.0008ZM7.64903 23.8673L7.70494 24.0594H7.70494L7.64903 23.8673ZM8.843 21.1867L8.65019 21.2399L8.843 21.1867ZM8.57831 20.3895L8.39089 20.4593L8.39089 20.4593L8.57831 20.3895ZM8.4826 20.1364L8.6696 20.0655L8.66952 20.0653L8.4826 20.1364ZM8.48233 20.1357L8.2954 20.2068L8.29541 20.2068L8.48233 20.1357ZM3.60002 14.394L3.40002 14.3931V14.394H3.60002ZM4.40213 13.3597L4.46951 13.548L4.40213 13.3597ZM3.60002 18.6009L3.80002 18.6012V18.6009H3.60002ZM3.60001 18.605L3.40001 18.6046L3.40001 18.6057L3.60001 18.605ZM3.68503 19.0088L3.50118 19.0875L3.68503 19.0088ZM5.64276 21.3675L5.79327 21.2358L5.79316 21.2357L5.64276 21.3675ZM5.64279 21.3676L5.49226 21.4993L5.4936 21.5008L5.64279 21.3676ZM5.64282 21.3676L5.79323 21.2358L5.79201 21.2344L5.64282 21.3676ZM6.876 22.7917L6.7226 22.9201L6.78851 22.9989L6.89096 22.9912L6.876 22.7917ZM7.3135 22.7152L7.25759 22.5231L7.3135 22.7152ZM7.68611 21.5056L7.49331 21.5588L7.68611 21.5056ZM7.45378 20.8084L7.64119 20.7386L7.45378 20.8084ZM7.36472 20.573L7.17771 20.6439L7.17773 20.6439L7.36472 20.573ZM7.36401 20.5711L7.55105 20.5002L7.54971 20.4968L7.36401 20.5711ZM7.364 20.5711L7.17707 20.6423L7.17831 20.6453L7.364 20.5711ZM7.36384 20.5706L7.17689 20.6417L7.17693 20.6418L7.36384 20.5706ZM7.36371 20.5703L7.17671 20.6412L7.17676 20.6414L7.36371 20.5703ZM7.2474 20.2625L7.05982 20.3318L7.05982 20.3318L7.2474 20.2625ZM7.08282 19.755L6.88875 19.8034V19.8034L7.08282 19.755ZM9.60004 13.2008L9.60003 13.4008H9.60004V13.2008ZM8.72034 13.2007L8.72032 13.4007H8.72034L8.72034 13.2007ZM5.37937 13.2004L5.3758 13.4004L5.37935 13.4004L5.37937 13.2004ZM1.2 13.2008V13.0008H0.999999V13.2008H1.2ZM1.2 18.6008H0.999999V18.8008H1.2V18.6008ZM2.40001 13.2008H2.60001V13.0008H2.40001V13.2008ZM2.40001 18.6008V18.8008H2.60001V18.6008H2.40001ZM8.29524 20.2064L8.2954 20.2068L8.66907 20.0641L8.66891 20.0637L8.29524 20.2064ZM8.29451 20.2045L8.29505 20.2059L8.66911 20.0642L8.66857 20.0628L8.29451 20.2045ZM8.18536 19.9156C8.20233 19.9615 8.24937 20.0855 8.29455 20.2046L8.66854 20.0627C8.62289 19.9424 8.57673 19.8207 8.56052 19.7769L8.18536 19.9156ZM8.16851 19.8698L8.1852 19.9152L8.56067 19.7773L8.54399 19.7318L8.16851 19.8698ZM10.2001 19.6008H8.35625V20.0008H10.2001V19.6008ZM11.8001 18.0008C11.8001 18.4607 11.6461 18.8591 11.3762 19.1411C11.1077 19.4218 10.7117 19.6008 10.2001 19.6008V20.0008C10.8102 20.0008 11.3142 19.7846 11.6653 19.4176C12.015 19.052 12.2001 18.5504 12.2001 18.0008H11.8001ZM9.60007 12.2008C10.3007 12.2008 10.8501 12.7081 11.2326 13.7334C11.6137 14.7547 11.8001 16.2269 11.8001 18.0008H12.2001C12.2001 16.2086 12.013 14.6807 11.6074 13.5936C11.2032 12.5103 10.5526 11.8008 9.60007 11.8008V12.2008ZM5.39517 12.2005C5.40526 12.2008 6.45962 12.2008 7.50518 12.2008C8.02936 12.2008 8.55308 12.2008 8.94576 12.2008C9.1421 12.2008 9.30568 12.2008 9.42017 12.2008C9.47742 12.2008 9.5224 12.2008 9.55306 12.2008C9.56839 12.2008 9.58014 12.2008 9.58807 12.2008C9.59203 12.2008 9.59503 12.2008 9.59704 12.2008C9.59805 12.2008 9.59881 12.2008 9.59931 12.2008C9.59957 12.2008 9.59976 12.2008 9.59988 12.2008C9.59995 12.2008 9.6 12.2008 9.60003 12.2008C9.60006 12.2008 9.60008 12.2008 9.60007 12.0008C9.60006 11.8008 9.60005 11.8008 9.60001 11.8008C9.59998 11.8008 9.59994 11.8008 9.59987 11.8008C9.59974 11.8008 9.59955 11.8008 9.5993 11.8008C9.59879 11.8008 9.59803 11.8008 9.59703 11.8008C9.59502 11.8008 9.59201 11.8008 9.58805 11.8008C9.58013 11.8008 9.56838 11.8008 9.55305 11.8008C9.52238 11.8008 9.47741 11.8008 9.42016 11.8008C9.30567 11.8008 9.14209 11.8008 8.94575 11.8008C8.55308 11.8008 8.02936 11.8008 7.50519 11.8008C6.98101 11.8008 6.45639 11.8008 6.0619 11.8007C5.86466 11.8007 5.69996 11.8007 5.58412 11.8007C5.46562 11.8007 5.40266 11.8006 5.40364 11.8006L5.39517 12.2005ZM4.06529 12.4182C4.54443 12.2467 5.02112 12.1938 5.39582 12.2006L5.40299 11.8006C4.98799 11.7932 4.46219 11.8513 3.93054 12.0415L4.06529 12.4182ZM3.5004 12.6929C3.66817 12.5844 3.85726 12.4926 4.06529 12.4182L3.93054 12.0415C3.69684 12.1252 3.47954 12.23 3.28312 12.3571L3.5004 12.6929ZM2.40001 12.2008C2.74325 12.2008 3.04619 12.3736 3.22658 12.6378L3.55693 12.4122C3.30519 12.0435 2.88097 11.8008 2.40001 11.8008V12.2008ZM1.20001 12.2008H2.40001V11.8008H1.20001V12.2008ZM0.2 13.2008C0.2 12.6486 0.647718 12.2008 1.20001 12.2008V11.8008C0.426804 11.8008 -0.2 12.4276 -0.2 13.2008H0.2ZM0.2 18.6009V13.2008H-0.2V18.6009H0.2ZM1.20001 19.6009C0.647718 19.6009 0.2 19.1532 0.2 18.6009H-0.2C-0.2 19.3741 0.426804 20.0009 1.20001 20.0009V19.6009ZM2.40001 19.6009H1.20001V20.0009H2.40001V19.6009ZM2.68559 19.5596C2.59534 19.5864 2.49954 19.6009 2.40001 19.6009V20.0009C2.53856 20.0009 2.67273 19.9807 2.79959 19.943L2.68559 19.5596ZM5.21876 22.4081C4.36402 21.4314 3.31712 20.2345 2.90745 19.638L2.57773 19.8645C3.00439 20.4857 4.07283 21.7061 4.91774 22.6715L5.21876 22.4081ZM5.21931 22.4087L5.21921 22.4086L4.91729 22.671L4.91739 22.6711L5.21931 22.4087ZM6.28816 23.6513C6.0813 23.3937 5.67789 22.9328 5.21886 22.4082L4.91785 22.6716C5.38031 23.2001 5.77618 23.6525 5.97627 23.9017L6.28816 23.6513ZM6.4683 23.8756L6.28816 23.6513L5.97627 23.9017L6.1564 24.126L6.4683 23.8756ZM6.60467 23.8008H6.31235V24.2008H6.60467V23.8008ZM7.59311 23.6753C7.25331 23.7743 6.95695 23.8009 6.6047 23.8008L6.60464 24.2008C6.98092 24.2009 7.31754 24.1722 7.70494 24.0594L7.59311 23.6753ZM8.80007 22.2008C8.80007 22.5984 8.67858 22.9092 8.47491 23.1472C8.26912 23.3876 7.96862 23.566 7.59311 23.6753L7.70494 24.0594C8.13559 23.934 8.51061 23.7206 8.7788 23.4073C9.04911 23.0915 9.20007 22.6864 9.20007 22.2008H8.80007ZM8.65019 21.2399C8.74892 21.598 8.80007 21.9121 8.80007 22.2008H9.20007C9.20007 21.8654 9.1407 21.5141 9.03581 21.1336L8.65019 21.2399ZM8.39089 20.4593C8.50385 20.7625 8.58495 21.0032 8.65019 21.2399L9.03581 21.1336C8.96633 20.8816 8.88094 20.6289 8.76573 20.3196L8.39089 20.4593ZM8.29561 20.2074C8.33604 20.3139 8.3749 20.4163 8.39089 20.4593L8.76573 20.3196C8.74919 20.2752 8.70972 20.1712 8.6696 20.0655L8.29561 20.2074ZM8.29541 20.2068L8.29568 20.2076L8.66952 20.0653L8.66925 20.0646L8.29541 20.2068ZM8.2953 20.2066L8.2954 20.2068L8.66926 20.0646L8.66916 20.0643L8.2953 20.2066ZM3.80002 14.3948C3.801 14.1617 3.85937 13.9969 3.95986 13.8713C4.06287 13.7424 4.22565 13.6353 4.46951 13.548L4.33476 13.1714C4.04989 13.2733 3.81276 13.4147 3.64745 13.6214C3.47963 13.8313 3.4013 14.0891 3.40002 14.3931L3.80002 14.3948ZM3.80002 18.6009V14.394H3.40002V18.6009H3.80002ZM3.80001 18.6053L3.80002 18.6012L3.40002 18.6005L3.40001 18.6046L3.80001 18.6053ZM3.86888 18.9301C3.82126 18.8189 3.80042 18.7189 3.80001 18.6042L3.40001 18.6057C3.40062 18.7759 3.4332 18.9288 3.50118 19.0875L3.86888 18.9301ZM5.79316 21.2357C5.34196 20.7209 4.88008 20.194 4.51789 19.7652C4.3367 19.5506 4.18189 19.3624 4.06644 19.2134C4.00865 19.1389 3.96195 19.0758 3.9272 19.0251C3.89035 18.9714 3.87371 18.9413 3.86888 18.9301L3.50118 19.0875C3.52256 19.1375 3.55859 19.1949 3.59735 19.2514C3.6382 19.3109 3.69007 19.3808 3.75029 19.4585C3.87086 19.614 4.02987 19.8073 4.21231 20.0233C4.57736 20.4555 5.04192 20.9855 5.49235 21.4994L5.79316 21.2357ZM5.7933 21.2359L5.79327 21.2358L5.49224 21.4992L5.49227 21.4993L5.7933 21.2359ZM5.79201 21.2344L5.79197 21.2344L5.4936 21.5008L5.49363 21.5008L5.79201 21.2344ZM7.0294 22.6634C6.71186 22.2838 6.25795 21.766 5.79322 21.2358L5.49242 21.4994C5.95839 22.031 6.40872 22.5448 6.7226 22.9201L7.0294 22.6634ZM7.25759 22.5231C7.12864 22.5607 7.00045 22.5818 6.86104 22.5923L6.89096 22.9912C7.05326 22.979 7.20946 22.9538 7.36942 22.9072L7.25759 22.5231ZM7.60003 22.2008C7.60003 22.2973 7.57632 22.3469 7.54115 22.3837C7.49843 22.4284 7.41676 22.4768 7.25759 22.5231L7.36942 22.9072C7.55407 22.8534 7.71567 22.78 7.83025 22.6601C7.95239 22.5324 8.00003 22.3749 8.00003 22.2008H7.60003ZM7.49331 21.5588C7.56626 21.8234 7.60003 22.0357 7.60003 22.2008H8.00003C8.00003 21.986 7.95692 21.7354 7.87892 21.4525L7.49331 21.5588ZM7.26636 20.8782C7.36822 21.1516 7.43907 21.3621 7.49331 21.5588L7.87892 21.4525C7.82036 21.24 7.74512 21.0175 7.64119 20.7386L7.26636 20.8782ZM7.17773 20.6439C7.21636 20.7457 7.25212 20.84 7.26636 20.8782L7.64119 20.7386C7.62641 20.6989 7.59003 20.603 7.55171 20.502L7.17773 20.6439ZM7.17701 20.642L7.17771 20.6439L7.55172 20.502L7.55102 20.5002L7.17701 20.642ZM7.17831 20.6453L7.17832 20.6454L7.54971 20.4968L7.5497 20.4968L7.17831 20.6453ZM7.17693 20.6418L7.17709 20.6422L7.55091 20.4999L7.55074 20.4995L7.17693 20.6418ZM7.17676 20.6414L7.17689 20.6417L7.55078 20.4996L7.55065 20.4992L7.17676 20.6414ZM7.05982 20.3318C7.07889 20.3834 7.1298 20.5176 7.17671 20.6412L7.5507 20.4993C7.50334 20.3745 7.4533 20.2426 7.43498 20.1931L7.05982 20.3318ZM6.88875 19.8034C6.92656 19.9551 6.98093 20.1185 7.05982 20.3318L7.43498 20.1931C7.35783 19.9845 7.3094 19.8372 7.27688 19.7067L6.88875 19.8034ZM7.80003 18.4008C7.38312 18.4008 7.08772 18.5679 6.93825 18.8624C6.79873 19.1372 6.80861 19.4817 6.88875 19.8034L7.27688 19.7067C7.20755 19.4283 7.21767 19.1956 7.29494 19.0434C7.36226 18.9108 7.50021 18.8008 7.80003 18.8008V18.4008ZM10.2 18.4008H7.80003V18.8008H10.2V18.4008ZM10.6 18.0008C10.6 18.1637 10.5606 18.255 10.5115 18.3061C10.4637 18.3558 10.3745 18.4008 10.2 18.4008V18.8008C10.4403 18.8008 10.6512 18.7378 10.7997 18.5835C10.9468 18.4306 11 18.2219 11 18.0008H10.6ZM9.60004 13.4008C9.64223 13.4008 9.74133 13.4391 9.87495 13.6526C10.0011 13.8542 10.1257 14.1633 10.2352 14.5743C10.4533 15.3935 10.6 16.5753 10.6 18.0008H11C11 16.5518 10.8513 15.3336 10.6217 14.4714C10.5073 14.0417 10.37 13.6898 10.214 13.4405C10.0656 13.2031 9.86238 13.0008 9.60004 13.0008V13.4008ZM8.72034 13.4007L9.60003 13.4008L9.60004 13.0008L8.72034 13.0007L8.72034 13.4007ZM5.37935 13.4004L8.72032 13.4007L8.72036 13.0007L5.37939 13.0004L5.37935 13.4004ZM4.46951 13.548C4.78728 13.4343 5.13152 13.396 5.3758 13.4004L5.38295 13.0004C5.09896 12.9954 4.70549 13.0388 4.33476 13.1714L4.46951 13.548ZM0.999999 13.2008V18.6008H1.4V13.2008H0.999999ZM2.40001 13.0008H1.2V13.4008H2.40001V13.0008ZM2.60001 18.6008V13.2008H2.20001V18.6008H2.60001ZM1.2 18.8008H2.40001V18.4008H1.2V18.8008Z" fill="#4269E2"/>
<path fill-rule="evenodd" clip-rule="evenodd" d="M20.4824 3.86511C20.4368 3.98539 20.3898 4.10923 20.3731 4.15432L20.3564 4.19975H22.2001C23.3218 4.19975 24 4.99021 24 5.99963C24 9.56554 23.2531 11.9992 21.6002 11.9992C21.6002 11.9992 17.4143 11.9991 17.3998 11.9994C17.005 12.0065 16.5038 11.951 15.9984 11.7702C15.7774 11.6911 15.574 11.5927 15.3918 11.4747C15.1758 11.7914 14.8121 11.9993 14.3998 11.9993H13.1999C12.5372 11.9993 12 11.4621 12 10.7994V5.39971C12 4.73701 12.5372 4.19979 13.1999 4.19979H14.3998C14.5191 4.19979 14.6343 4.21718 14.743 4.24957C15.161 3.64085 16.2188 2.43213 17.0686 1.46096L17.0687 1.46094L17.0687 1.46092C17.5294 0.934415 17.9291 0.477738 18.1326 0.224344L18.3127 2.86102e-05H18.605C18.9692 -2.57492e-05 19.2857 0.0276442 19.6493 0.133512C20.4554 0.368236 21.0002 0.916764 21.0002 1.79991C21.0002 2.11196 20.9449 2.44465 20.8431 2.81392C20.7758 3.05824 20.6926 3.30494 20.5785 3.61113C20.5622 3.65493 20.5228 3.75863 20.4824 3.86511ZM19.8003 1.7999C19.8003 1.52934 19.6576 1.38569 19.3138 1.28558C19.1693 1.24352 19.0272 1.22033 18.8763 1.20902C18.5606 1.58639 18.1085 2.10218 17.6432 2.63305L17.6432 2.63307C16.7416 3.66167 15.7904 4.74691 15.6856 4.99168C15.6272 5.12795 15.6006 5.25556 15.6006 5.39966V9.59939C15.6006 10.1407 15.8717 10.4504 16.4026 10.6404C16.7469 10.7635 17.1157 10.8044 17.3798 10.7997L20.7205 10.7993L21.6002 10.7993C22.2092 10.7993 22.8001 8.87388 22.8001 5.99963C22.8001 5.61558 22.6148 5.39966 22.2001 5.39966H19.8003C19.0836 5.39966 18.9337 4.84551 19.0831 4.24553C19.1183 4.10439 19.1697 3.94906 19.2477 3.7381C19.2664 3.68745 19.3171 3.554 19.3643 3.42957C19.403 3.32745 19.4394 3.2314 19.4541 3.19221C19.5569 2.91605 19.63 2.69959 19.6864 2.49502C19.7618 2.22126 19.8003 1.98984 19.8003 1.7999ZM13.2007 5.39966V10.7993H14.4006V5.39966H13.2007Z" fill="#4269E2"/>
<path d="M20.3731 4.15432L20.1854 4.08536L20.1855 4.08495L20.3731 4.15432ZM20.4824 3.86511L20.6694 3.93605L20.6694 3.93606L20.4824 3.86511ZM20.3564 4.19975V4.39975H20.0699L20.1687 4.1308L20.3564 4.19975ZM21.6002 11.9992V12.1992H21.6002L21.6002 11.9992ZM17.3998 11.9994L17.404 12.1994L17.4034 12.1994L17.3998 11.9994ZM15.9984 11.7702L15.931 11.9585L15.931 11.9585L15.9984 11.7702ZM15.3918 11.4747L15.2266 11.362L15.3366 11.2007L15.5005 11.3068L15.3918 11.4747ZM14.743 4.24957L14.9078 4.36279L14.8254 4.48282L14.6859 4.44125L14.743 4.24957ZM17.0686 1.46096L17.2192 1.59266L17.2192 1.59267L17.0686 1.46096ZM17.0687 1.46094L17.2261 1.58467L17.2192 1.59264L17.0687 1.46094ZM17.0687 1.46092L16.9112 1.33718L16.9182 1.32921L17.0687 1.46092ZM18.1326 0.224344L17.9766 0.0991211H17.9766L18.1326 0.224344ZM18.3127 2.86102e-05L18.1567 -0.125195L18.2168 -0.199971H18.3127V2.86102e-05ZM18.605 2.86102e-05L18.605 0.200028H18.605V2.86102e-05ZM19.6493 0.133512L19.5933 0.325538H19.5933L19.6493 0.133512ZM20.8431 2.81392L20.6503 2.76077L20.8431 2.81392ZM20.5785 3.61113L20.3911 3.54131V3.54131L20.5785 3.61113ZM19.3138 1.28558L19.2579 1.4776H19.2579L19.3138 1.28558ZM18.8763 1.20902L18.7229 1.08069L18.7888 1.0019L18.8913 1.00958L18.8763 1.20902ZM17.6432 2.63305L17.4895 2.50497L17.4928 2.50122L17.6432 2.63305ZM17.6432 2.63307L17.7969 2.76114L17.7936 2.7649L17.6432 2.63307ZM15.6856 4.99168L15.8694 5.07042H15.8694L15.6856 4.99168ZM16.4026 10.6404L16.3352 10.8287L16.4026 10.6404ZM17.3798 10.7997L17.3762 10.5997L17.3798 10.5997L17.3798 10.7997ZM20.7205 10.7993L20.7205 10.5993H20.7205L20.7205 10.7993ZM21.6002 10.7993L21.6002 10.5993H21.6002V10.7993ZM19.0831 4.24553L19.2772 4.29387L19.0831 4.24553ZM19.2477 3.7381L19.0601 3.66873L19.0601 3.66873L19.2477 3.7381ZM19.3643 3.42957L19.1773 3.35862L19.3643 3.42957ZM19.4541 3.19221L19.2666 3.12239L19.2666 3.12238L19.4541 3.19221ZM19.6864 2.49502L19.4936 2.44187L19.6864 2.49502ZM13.2007 10.7993V10.9993H13.0007V10.7993H13.2007ZM13.2007 5.39966H13.0007V5.19966H13.2007V5.39966ZM14.4006 10.7993H14.6006V10.9993H14.4006V10.7993ZM14.4006 5.39966V5.19966H14.6006V5.39966H14.4006ZM20.1855 4.08495C20.2026 4.03883 20.25 3.91382 20.2954 3.79416L20.6694 3.93606C20.6235 4.05695 20.577 4.17963 20.5607 4.22369L20.1855 4.08495ZM20.1687 4.1308L20.1854 4.08536L20.5609 4.22327L20.5442 4.26871L20.1687 4.1308ZM22.2001 4.39975H20.3564V3.99975H22.2001V4.39975ZM23.8 5.99963C23.8 5.53979 23.646 5.14145 23.3762 4.85941C23.1077 4.57876 22.7117 4.39975 22.2001 4.39975V3.99975C22.8102 3.99975 23.3142 4.21598 23.6652 4.5829C24.0149 4.94846 24.2 5.45006 24.2 5.99963H23.8ZM21.6002 11.7992C22.3007 11.7992 22.8501 11.2919 23.2326 10.2667C23.6136 9.24549 23.8 7.77343 23.8 5.99963H24.2C24.2 7.79175 24.013 9.31949 23.6073 10.4066C23.2032 11.4897 22.5526 12.1992 21.6002 12.1992V11.7992ZM17.3956 11.7995C17.4056 11.7992 18.4599 11.7992 19.5054 11.7992C20.0296 11.7992 20.5533 11.7992 20.9459 11.7992C21.1422 11.7992 21.3058 11.7992 21.4203 11.7992C21.4775 11.7992 21.5225 11.7992 21.5532 11.7992C21.5685 11.7992 21.5802 11.7992 21.5882 11.7992C21.5921 11.7992 21.5951 11.7992 21.5971 11.7992C21.5981 11.7992 21.5989 11.7992 21.5994 11.7992C21.5997 11.7992 21.5999 11.7992 21.6 11.7992C21.6 11.7992 21.6001 11.7992 21.6001 11.7992C21.6002 11.7992 21.6002 11.7992 21.6002 11.9992C21.6002 12.1992 21.6001 12.1992 21.6001 12.1992C21.6001 12.1992 21.6 12.1992 21.6 12.1992C21.5998 12.1992 21.5996 12.1992 21.5994 12.1992C21.5989 12.1992 21.5981 12.1992 21.5971 12.1992C21.5951 12.1992 21.5921 12.1992 21.5881 12.1992C21.5802 12.1992 21.5685 12.1992 21.5531 12.1992C21.5225 12.1992 21.4775 12.1992 21.4203 12.1992C21.3058 12.1992 21.1422 12.1992 20.9459 12.1992C20.5532 12.1992 20.0296 12.1992 19.5054 12.1992C18.9813 12.1992 18.4567 12.1992 18.0622 12.1993C17.865 12.1993 17.7003 12.1993 17.5845 12.1993C17.466 12.1993 17.4031 12.1994 17.404 12.1994L17.3956 11.7995ZM16.0658 11.5819C16.5449 11.7533 17.0215 11.8062 17.3962 11.7994L17.4034 12.1994C16.9884 12.2068 16.4626 12.1487 15.931 11.9585L16.0658 11.5819ZM15.5005 11.3068C15.6684 11.4155 15.8576 11.5074 16.0658 11.5819L15.931 11.9585C15.6971 11.8748 15.4797 11.7698 15.2831 11.6426L15.5005 11.3068ZM14.3998 11.7993C14.7432 11.7993 15.0462 11.6264 15.2266 11.362L15.557 11.5874C15.3053 11.9564 14.881 12.1993 14.3998 12.1993V11.7993ZM13.1999 11.7993H14.3998V12.1993H13.1999V11.7993ZM12.2 10.7994C12.2 11.3516 12.6477 11.7993 13.1999 11.7993V12.1993C12.4268 12.1993 11.8 11.5725 11.8 10.7994H12.2ZM12.2 5.39971V10.7994H11.8V5.39971H12.2ZM13.1999 4.39979C12.6477 4.39979 12.2 4.84747 12.2 5.39971H11.8C11.8 4.62656 12.4268 3.99979 13.1999 3.99979V4.39979ZM14.3998 4.39979H13.1999V3.99979H14.3998V4.39979ZM14.6859 4.44125C14.5955 4.41432 14.4995 4.39979 14.3998 4.39979V3.99979C14.5386 3.99979 14.673 4.02005 14.8001 4.0579L14.6859 4.44125ZM17.2192 1.59267C16.3643 2.56946 15.3173 3.76645 14.9078 4.36279L14.5781 4.13636C15.0046 3.51525 16.0732 2.2948 16.9181 1.32925L17.2192 1.59267ZM17.2192 1.59264L17.2192 1.59266L16.9181 1.32926L16.9181 1.32924L17.2192 1.59264ZM17.2259 1.58448L17.2259 1.5845L16.9114 1.33737L16.9114 1.33735L17.2259 1.58448ZM18.2885 0.349567C18.0816 0.607178 17.6782 1.06809 17.2192 1.59263L16.9182 1.32921C17.3806 0.800742 17.7765 0.348299 17.9766 0.0991211L18.2885 0.349567ZM18.4686 0.125252L18.2885 0.349567L17.9766 0.0991211L18.1567 -0.125195L18.4686 0.125252ZM18.605 0.200028H18.3127V-0.199971H18.605V0.200028ZM19.5933 0.325538C19.2536 0.2266 18.9572 0.199976 18.605 0.200028L18.6049 -0.199971C18.9812 -0.200027 19.3178 -0.171311 19.7052 -0.0585127L19.5933 0.325538ZM20.8002 1.79991C20.8002 1.40236 20.6787 1.09154 20.4751 0.853603C20.2693 0.61319 19.9688 0.434871 19.5933 0.325538L19.7052 -0.0585127C20.1358 0.0668774 20.5108 0.280185 20.779 0.593502C21.0493 0.909297 21.2002 1.31431 21.2002 1.79991H20.8002ZM20.6503 2.76077C20.7491 2.40268 20.8002 2.08859 20.8002 1.79991H21.2002C21.2002 2.13533 21.1408 2.48662 21.036 2.86707L20.6503 2.76077ZM20.3911 3.54131C20.504 3.23815 20.5851 2.9974 20.6503 2.76077L21.036 2.86707C20.9665 3.11908 20.8811 3.37174 20.7659 3.68096L20.3911 3.54131ZM20.2954 3.79416C20.336 3.68727 20.375 3.58438 20.3911 3.54131L20.7659 3.68096C20.7493 3.72548 20.7097 3.82998 20.6694 3.93605L20.2954 3.79416ZM19.3697 1.09355C19.5543 1.14732 19.7159 1.22077 19.8305 1.3406C19.9526 1.46832 20.0003 1.62581 20.0003 1.7999H19.6003C19.6003 1.70342 19.5766 1.65381 19.5414 1.61704C19.4987 1.57237 19.417 1.52395 19.2579 1.4776L19.3697 1.09355ZM18.8913 1.00958C19.0536 1.02175 19.2097 1.04698 19.3697 1.09355L19.2579 1.4776C19.1289 1.44006 19.0008 1.41891 18.8614 1.40846L18.8913 1.00958ZM17.4928 2.50122C17.9588 1.96964 18.4091 1.45588 18.7229 1.08069L19.0297 1.33735C18.7122 1.7169 18.2583 2.23472 17.7936 2.76488L17.4928 2.50122ZM17.4896 2.50503L17.4896 2.50501L17.7969 2.76109L17.7969 2.7611L17.4896 2.50503ZM15.5017 4.91294C15.5231 4.86303 15.5591 4.80561 15.5979 4.74911C15.6387 4.68956 15.6906 4.61969 15.7508 4.542C15.8714 4.38647 16.0304 4.19324 16.2128 3.97726C16.5779 3.54508 17.0424 3.0151 17.4928 2.50124L17.7936 2.7649C17.3424 3.27964 16.8806 3.80658 16.5184 4.23536C16.3372 4.44986 16.1824 4.63812 16.067 4.78706C16.0092 4.86161 15.9625 4.92472 15.9277 4.97538C15.8909 5.0291 15.8743 5.05914 15.8694 5.07042L15.5017 4.91294ZM15.4006 5.39966C15.4006 5.22761 15.4331 5.07327 15.5017 4.91294L15.8694 5.07042C15.8214 5.18262 15.8006 5.2835 15.8006 5.39966H15.4006ZM15.4006 9.59939V5.39966H15.8006V9.59939H15.4006ZM16.3352 10.8287C16.0492 10.7263 15.8113 10.5842 15.6459 10.3761C15.4781 10.1648 15.4006 9.90533 15.4006 9.59939H15.8006C15.8006 9.83475 15.8586 10.0008 15.9591 10.1272C16.062 10.2568 16.2251 10.3644 16.47 10.4521L16.3352 10.8287ZM17.3834 10.9996C17.0994 11.0047 16.706 10.9613 16.3352 10.8287L16.47 10.4521C16.7877 10.5657 17.132 10.6041 17.3762 10.5997L17.3834 10.9996ZM20.7205 10.9993L17.3798 10.9997L17.3798 10.5997L20.7205 10.5993L20.7205 10.9993ZM21.6002 10.9993L20.7205 10.9993L20.7205 10.5993L21.6002 10.5993L21.6002 10.9993ZM23.0001 5.99963C23.0001 7.44847 22.8513 8.66665 22.6218 9.52878C22.5074 9.95842 22.3701 10.3103 22.2141 10.5596C22.0656 10.7969 21.8625 10.9993 21.6002 10.9993V10.5993C21.6423 10.5993 21.7414 10.561 21.875 10.3475C22.0011 10.1459 22.1258 9.83684 22.2352 9.42585C22.4534 8.6067 22.6001 7.42503 22.6001 5.99963H23.0001ZM22.2001 5.19966C22.4404 5.19966 22.6512 5.26264 22.7997 5.41694C22.9468 5.56982 23.0001 5.77854 23.0001 5.99963H22.6001C22.6001 5.83667 22.5607 5.74541 22.5115 5.69432C22.4637 5.64465 22.3745 5.59966 22.2001 5.59966V5.19966ZM19.8003 5.19966H22.2001V5.59966H19.8003V5.19966ZM19.2772 4.29387C19.2079 4.5722 19.218 4.80486 19.2952 4.95707C19.3625 5.08969 19.5005 5.19966 19.8003 5.19966V5.59966C19.3834 5.59966 19.088 5.43257 18.9386 5.13811C18.799 4.86324 18.8089 4.51884 18.889 4.19718L19.2772 4.29387ZM19.4353 3.80748C19.3581 4.01608 19.3097 4.16337 19.2772 4.29387L18.889 4.19718C18.9269 4.04541 18.9812 3.88204 19.0601 3.66873L19.4353 3.80748ZM19.5513 3.50051C19.5038 3.62554 19.4536 3.75785 19.4353 3.80748L19.0601 3.66873C19.0792 3.61706 19.1303 3.48245 19.1773 3.35862L19.5513 3.50051ZM19.6415 3.26203C19.6266 3.30196 19.5898 3.39881 19.5513 3.50051L19.1773 3.35862C19.2162 3.25608 19.2523 3.16085 19.2666 3.12239L19.6415 3.26203ZM19.8792 2.54817C19.8206 2.7606 19.7454 2.9831 19.6415 3.26203L19.2666 3.12238C19.3685 2.849 19.4393 2.63858 19.4936 2.44187L19.8792 2.54817ZM20.0003 1.7999C20.0003 2.01465 19.9572 2.26526 19.8792 2.54817L19.4936 2.44187C19.5665 2.17727 19.6003 1.96503 19.6003 1.7999H20.0003ZM13.0007 10.7993V5.39966H13.4007V10.7993H13.0007ZM14.4006 10.9993H13.2007V10.5993H14.4006V10.9993ZM14.6006 5.39966V10.7993H14.2006V5.39966H14.6006ZM13.2007 5.19966H14.4006V5.59966H13.2007V5.19966Z" fill="#4269E2"/>
</g>
<defs>
<clipPath id="clip0">
<rect width="24" height="24" fill="white"/>
</clipPath>
</defs>
</svg>
